<svg width="639" height="139" viewBox="0 0 639 139" fill="none" xmlns="http://www.w3.org/2000/svg">
<path d="M30.9366 77.5481L0 3.81042H18.9507L37.537 52.24L56.1232 3.81042H75.0739L44.1373 77.5481H30.9366Z" fill="#38611F"/>
<path d="M118.059 56.8157H84.8147C84.8147 60.0349 85.8473 62.424 87.9327 63.9829C90.0079 65.5217 92.2755 66.291 94.7355 66.291C97.2967 66.291 99.3213 65.957 100.809 65.2787C102.287 64.5802 103.988 63.2136 105.912 61.1889L117.331 66.8984C112.573 74.8958 104.656 78.8843 93.5612 78.8843C86.647 78.8843 80.7249 76.5256 75.7848 71.7981C70.8446 67.0503 68.3746 61.3408 68.3746 54.6696C68.3746 48.0085 70.8446 42.299 75.7848 37.541C80.7249 32.7629 86.647 30.3738 93.5612 30.3738C100.82 30.3738 106.732 32.4794 111.297 36.6907C115.853 40.8817 118.14 46.8747 118.14 54.6696C118.14 55.7527 118.11 56.4715 118.059 56.8157ZM85.2601 48.0692H102.672C102.318 45.67 101.376 43.8377 99.8376 42.5622C98.3191 41.2968 96.3754 40.659 94.0066 40.659C91.3847 40.659 89.2892 41.3474 87.7302 42.7241C86.1915 44.0806 85.3614 45.8623 85.2601 48.0692Z" fill="#38611F"/>
<path d="M128.694 71.8789C124.402 67.2121 122.255 61.4722 122.255 54.6694C122.255 47.8666 124.402 42.1166 128.694 37.4194C132.986 32.7222 138.432 30.3737 145.053 30.3737C151.127 30.3737 156.118 32.2768 160.035 36.0832V0.692322H175.868V77.548H160.238V72.3649H160.035C156.118 76.7178 151.127 78.8842 145.053 78.8842C138.432 78.8842 132.986 76.5559 128.694 71.8789ZM142.137 46.8948C140.082 48.9194 139.06 51.511 139.06 54.6694C139.06 57.8279 140.032 60.4093 141.975 62.4036C143.939 64.408 146.551 65.4001 149.791 65.4001C152.868 65.4001 155.399 64.3877 157.403 62.3631C159.398 60.3384 160.4 57.7773 160.4 54.6694C160.4 51.511 159.367 48.9194 157.322 46.8948C155.267 44.8701 152.757 43.8578 149.791 43.8578C146.733 43.8578 144.182 44.8701 142.137 46.8948Z" fill="#38611F"/>
<path d="M189.723 71.8791C185.431 67.2122 183.285 61.4724 183.285 54.6696C183.285 47.8667 185.431 42.1167 189.723 37.4196C194.015 32.7224 199.461 30.3738 206.082 30.3738C212.156 30.3738 217.147 32.2769 221.064 36.0833V31.71H236.897V77.5481H221.267V72.365H221.064C217.147 76.718 212.156 78.8843 206.082 78.8843C199.461 78.8843 194.015 76.556 189.723 71.8791ZM203.167 46.8949C201.112 48.9196 200.089 51.5111 200.089 54.6696C200.089 57.828 201.061 60.4094 203.005 62.4037C204.969 64.4081 207.58 65.4002 210.82 65.4002C213.897 65.4002 216.428 64.3879 218.432 62.3632C220.427 60.3386 221.429 57.7774 221.429 54.6696C221.429 51.5111 220.396 48.9196 218.351 46.8949C216.296 44.8703 213.786 43.8579 210.82 43.8579C207.763 43.8579 205.211 44.8703 203.167 46.8949Z" fill="#38611F"/>
<path d="M283.557 31.7911V77.5481H266.753V3.81042H283.557L312.874 49.5675H313.077V3.81042H329.881V77.5481H313.077L283.76 31.7911H283.557Z" fill="#FF914D"/>
<path d="M342.098 6.15888C343.931 4.29621 346.127 3.36487 348.699 3.36487C351.26 3.36487 353.457 4.29621 355.299 6.15888C357.162 8.00131 358.093 10.1981 358.093 12.7592C358.093 15.3305 357.162 17.5374 355.299 19.4001C353.457 21.2425 351.26 22.1536 348.699 22.1536C346.127 22.1536 343.931 21.2425 342.098 19.4001C340.256 17.5374 339.345 15.3305 339.345 12.7592C339.345 10.1981 340.256 8.00131 342.098 6.15888ZM340.56 31.7099V77.548H356.392V31.7099H340.56Z" fill="#FF914D"/>
<path d="M367.545 77.5481V31.71H383.377V38.3104H383.539C383.671 38.0674 383.873 37.7739 384.147 37.4196C384.41 37.0754 384.997 36.4477 385.888 35.5569C386.779 34.666 387.72 33.8764 388.722 33.1678C389.745 32.4389 391.051 31.791 392.65 31.2241C394.27 30.6572 395.91 30.3738 397.59 30.3738C399.311 30.3738 401.012 30.6167 402.692 31.1027C404.363 31.5683 405.578 32.034 406.337 32.5199L407.592 33.2083L400.992 46.6115C399.018 44.9715 396.274 44.1414 392.772 44.1414C390.848 44.1414 389.208 44.5666 387.832 45.3967C386.475 46.2065 385.523 47.2188 384.957 48.4336C384.39 49.6282 383.985 50.6405 383.742 51.4706C383.499 52.2805 383.377 52.9284 383.377 53.4143V77.5481H367.545Z" fill="#FF914D"/>
<path d="M427.552 31.71L438.728 56.6537L449.904 31.71H468.693L444.114 77.548H433.383L408.804 31.71H427.552Z" fill="#FF914D"/>
<path d="M470.869 71.8791C466.577 67.2122 464.431 61.4724 464.431 54.6696C464.431 47.8667 466.577 42.1167 470.869 37.4196C475.162 32.7224 480.608 30.3738 487.229 30.3738C493.303 30.3738 498.293 32.2769 502.211 36.0833V31.71H518.044V77.5481H502.413V72.365H502.211C498.293 76.718 493.303 78.8843 487.229 78.8843C480.608 78.8843 475.162 76.556 470.869 71.8791ZM484.313 46.8949C482.258 48.9196 481.236 51.5111 481.236 54.6696C481.236 57.828 482.207 60.4094 484.151 62.4037C486.115 64.4081 488.727 65.4002 491.966 65.4002C495.044 65.4002 497.575 64.3879 499.579 62.3632C501.573 60.3386 502.575 57.7774 502.575 54.6696C502.575 51.5111 501.543 48.9196 499.498 46.8949C497.443 44.8703 494.932 43.8579 491.966 43.8579C488.909 43.8579 486.358 44.8703 484.313 46.8949Z" fill="#FF914D"/>
<path d="M531.899 71.8791C527.606 67.2122 525.46 61.4724 525.46 54.6696C525.46 47.8667 527.606 42.1167 531.899 37.4196C536.191 32.7224 541.637 30.3738 548.258 30.3738C554.332 30.3738 559.322 32.2769 563.24 36.0833V31.71H579.073V77.5481H563.443V72.365H563.24C559.322 76.718 554.332 78.8843 548.258 78.8843C541.637 78.8843 536.191 76.556 531.899 71.8791ZM545.342 46.8949C543.287 48.9196 542.265 51.5111 542.265 54.6696C542.265 57.828 543.237 60.4094 545.18 62.4037C547.144 64.4081 549.756 65.4002 552.995 65.4002C556.073 65.4002 558.604 64.3879 560.608 62.3632C562.602 60.3386 563.605 57.7774 563.605 54.6696C563.605 51.5111 562.572 48.9196 560.527 46.8949C558.472 44.8703 555.962 43.8579 552.995 43.8579C549.938 43.8579 547.387 44.8703 545.342 46.8949Z" fill="#FF914D"/>
<path d="M589.769 77.5481V31.71H605.602V36.5287H605.764C609.894 32.4288 614.278 30.3738 618.924 30.3738C621.192 30.3738 623.429 30.6775 625.646 31.2646C627.883 31.8619 630.029 32.7932 632.084 34.0586C634.16 35.3038 635.83 37.0754 637.106 39.3632C638.371 41.6308 639.009 44.2932 639.009 47.3403V77.5481H623.217V51.6326C623.217 49.2637 622.447 47.1784 620.908 45.3967C619.39 43.5947 617.426 42.6836 614.996 42.6836C612.617 42.6836 610.461 43.615 608.518 45.4777C606.574 47.3201 605.602 49.365 605.602 51.6326V77.5481H589.769Z" fill="#FF914D"/>
<mask id="mask0_1_442" style="mask-type:luminance" maskUnits="userSpaceOnUse" x="212" y="20" width="34" height="15">
<path d="M212.529 20.4894H245.987V34.7328H212.529V20.4894Z" fill="white"/>
</mask>
<g mask="url(#mask0_1_442)">
<path d="M245.966 20.4996L245.248 20.5097C245.035 22.2711 243.537 29.7218 233.333 30.9366L234.79 32.4652C233.778 32.8297 231.834 33.3561 228.919 33.3561C225.993 33.3561 224.05 32.8297 223.037 32.4652L224.495 30.9366C213.015 29.3574 212.55 20.5097 212.55 20.5097C212.55 20.5097 212.246 28.9322 221.792 31.7667L220.77 32.8398L221.509 33.2852C221.61 33.346 223.999 34.7328 228.919 34.7328C233.829 34.7328 236.218 33.346 236.319 33.2852L237.068 32.8398L236.036 31.7667C241.006 30.4608 243.436 27.6668 244.61 25.4701C245.987 22.8887 245.966 20.5907 245.966 20.4996Z" fill="#4C5B33"/>
</g>
<mask id="mask1_1_442" style="mask-type:luminance" maskUnits="userSpaceOnUse" x="220" y="0" width="14" height="18">
<path d="M220.841 0H233.798V17.8675H220.841V0Z" fill="white"/>
</mask>
<g mask="url(#mask1_1_442)">
<path d="M229.273 16.2984C223.726 12.8059 224.92 5.11224 224.92 5.11224C225.224 12.3807 228.413 14.5977 230.296 15.276C230.67 14.5066 231.025 13.5854 231.146 12.7654C231.511 10.3358 230.518 7.64306 228.706 6.00309C226.945 4.41374 225.356 3.25969 225.406 0.728882C225.001 1.39701 224.627 1.99429 224.191 2.67254C217.976 12.239 227.228 16.3288 228.443 16.2174C228.757 16.2984 229.03 16.3288 229.273 16.2984Z" fill="#4C5B33"/>
</g>
<mask id="mask2_1_442" style="mask-type:luminance" maskUnits="userSpaceOnUse" x="231" y="0" width="18" height="19">
<path d="M231.743 0H248.487V18.5154H231.743V0Z" fill="white"/>
</mask>
<g mask="url(#mask2_1_442)">
<path d="M232.391 17.5436C241.998 16.8349 245.744 6.03345 245.744 6.03345C240.348 15.2557 234.669 15.934 231.754 15.5189C231.814 14.2636 231.986 12.816 232.391 11.662C233.586 8.26056 236.734 5.4463 240.217 4.5757C243.598 3.72535 246.453 3.32042 248.143 0C248.204 1.1338 248.275 2.17649 248.386 3.36092C249.854 20.0643 235.013 19.0013 233.515 18.0194C233.049 17.8979 232.675 17.7562 232.391 17.5436Z" fill="#4C5B33"/>
</g>
<path d="M212.55 19.386C212.55 20.3578 215.698 21.2183 220.415 21.684L216.731 17.584C214.139 18.0598 212.55 18.6875 212.55 19.386Z" fill="#4C5B33"/>
<path d="M245.278 19.3859C245.278 17.8978 237.949 16.6931 228.919 16.6931C227.097 16.6931 225.345 16.7336 223.705 16.8247C226.084 18.9708 228.301 20.9246 229.121 21.5219L229.86 22.0787C238.455 21.9977 245.278 20.8234 245.278 19.3859Z" fill="#4C5B33"/>
<mask id="mask3_1_442" style="mask-type:luminance" maskUnits="userSpaceOnUse" x="209" y="4" width="23" height="20">
<path d="M209.644 4.90967H231.207V23.0505H209.644V4.90967Z" fill="white"/>
</mask>
<g mask="url(#mask3_1_442)">
<path d="M222.734 16.8855C219.241 13.7372 215.587 10.3763 215.587 10.3763L214.392 7.80495C213.886 7.28866 213.218 7.03558 212.55 7.03558C211.871 7.03558 211.203 7.29879 210.697 7.80495C209.675 8.8274 209.675 10.4876 210.697 11.5101L213.279 12.6945L217.54 17.4423L221.367 21.7244C223.523 21.9269 225.983 22.0483 228.615 22.0787C228.646 22.0787 228.676 22.0787 228.706 22.0787C227.815 21.4207 225.315 19.2138 222.734 16.8855Z" fill="#4C5B33"/>
</g>
<path d="M23.3644 107.531H34.3785L28.8715 96.2998L23.3644 107.531ZM42.1532 116.483H38.7923L35.5123 109.842H22.1901L18.9507 116.483H15.5493L28.8715 90.4401L42.1532 116.483Z" fill="#545454"/>
<path d="M59.497 116.484V106.62C59.497 105.602 59.2136 104.723 58.6467 103.983C58.0494 103.267 57.0877 102.909 55.7717 102.909C54.4152 102.909 53.3219 103.104 52.4918 103.495C51.6819 103.91 51.0138 104.439 50.5076 105.09C49.556 106.286 49.0904 107.881 49.0904 109.875V116.484H45.9724V100.727H49.0904V103.429C49.7382 102.542 50.5582 101.818 51.5604 101.248C52.6335 100.687 53.8786 100.402 55.2858 100.402C56.6625 100.402 57.7761 100.556 58.6467 100.858C59.5072 101.183 60.236 101.631 60.8333 102.192C62.0177 103.299 62.615 104.78 62.615 106.62V116.484H59.497Z" fill="#545454"/>
<path d="M86.9678 106.392H83.5664C83.0501 105.375 82.2301 104.561 81.0963 103.95C79.9625 103.324 78.8085 103.006 77.6544 103.006C76.4903 103.006 75.4881 103.153 74.6579 103.429C73.8177 103.755 73.099 104.17 72.5118 104.666C71.1857 105.773 70.5277 107.092 70.5277 108.606C70.5277 110.127 71.1857 111.438 72.5118 112.545C73.8278 113.676 75.4374 114.237 77.3305 114.237C78.5959 114.237 79.7601 113.969 80.8129 113.424C81.8657 112.903 82.6857 112.203 83.2829 111.308H86.8058C85.6923 113.847 83.5664 115.556 80.4079 116.419C79.4361 116.695 78.3226 116.842 77.0875 116.842C75.812 116.842 74.577 116.614 73.3622 116.158C72.1474 115.727 71.0946 115.133 70.2037 114.368C68.2803 112.74 67.3287 110.819 67.3287 108.606C67.3287 106.351 68.2803 104.43 70.2037 102.843C72.1676 101.216 74.5466 100.402 77.3305 100.402C79.5981 100.402 81.6329 100.955 83.4449 102.062C85.1659 103.153 86.3402 104.593 86.9678 106.392Z" fill="#545454"/>
<path d="M95.051 95.2581C95.4256 95.5837 95.6179 95.958 95.6179 96.365C95.6179 96.8207 95.4256 97.2114 95.051 97.5369C94.6461 97.8462 94.1804 97.9927 93.6743 97.9927C93.1074 97.9927 92.6215 97.8462 92.2165 97.5369C91.8319 97.2114 91.6496 96.8207 91.6496 96.365C91.6496 95.958 91.8319 95.5837 92.2165 95.2581C92.6215 94.957 93.1074 94.8024 93.6743 94.8024C94.1804 94.8024 94.6461 94.957 95.051 95.2581ZM95.213 116.483H92.0951V100.727H95.213V116.483Z" fill="#545454"/>
<path d="M121.255 108.247V109.582H104.005C104.299 110.933 105.109 112.04 106.435 112.903C107.812 113.798 109.33 114.237 111.011 114.237C112.144 114.237 113.217 114.026 114.25 113.586C115.273 113.179 116.123 112.601 116.801 111.861H120.364C119.524 113.358 118.279 114.547 116.639 115.409C114.938 116.304 113.217 116.744 111.497 116.744C109.735 116.744 108.257 116.524 107.042 116.093C105.797 115.662 104.704 115.076 103.762 114.335C101.758 112.756 100.766 110.819 100.766 108.54C100.766 106.261 101.758 104.308 103.762 102.68C105.757 101.077 108.176 100.271 111.011 100.271C113.734 100.271 116.123 101.053 118.178 102.615C120.223 104.202 121.255 106.082 121.255 108.247ZM117.975 107.401C117.591 106.082 116.761 104.976 115.465 104.08C114.139 103.218 112.651 102.778 111.011 102.778C108.439 102.778 106.435 103.706 104.977 105.545C104.542 106.131 104.228 106.75 104.046 107.401H117.975Z" fill="#545454"/>
<path d="M139.924 116.484V106.62C139.924 105.602 139.641 104.723 139.074 103.983C138.477 103.267 137.515 102.909 136.199 102.909C134.842 102.909 133.749 103.104 132.919 103.495C132.109 103.91 131.441 104.439 130.935 105.09C129.983 106.286 129.518 107.881 129.518 109.875V116.484H126.4V100.727H129.518V103.429C130.166 102.542 130.986 101.818 131.988 101.248C133.061 100.687 134.306 100.402 135.713 100.402C137.09 100.402 138.203 100.556 139.074 100.858C139.934 101.183 140.663 101.631 141.261 102.192C142.445 103.299 143.042 104.78 143.042 106.62V116.484H139.924Z" fill="#545454"/>
<path d="M146.622 103.039V100.727H151.522V94.5746H154.64V100.727H159.499V103.039H154.64V116.484H151.522V103.039H146.622Z" fill="#545454"/>
<path d="M186.65 117.949L172.882 92.1005H176.283L186.65 111.763L197.016 92.1005H200.377L186.65 117.949Z" fill="#545454"/>
<path d="M218.757 108.247V109.582H201.507C201.801 110.933 202.611 112.04 203.937 112.903C205.314 113.798 206.832 114.237 208.513 114.237C209.646 114.237 210.72 114.026 211.752 113.586C212.775 113.179 213.625 112.601 214.303 111.861H217.867C217.026 113.358 215.781 114.547 214.141 115.409C212.441 116.304 210.72 116.744 208.999 116.744C207.237 116.744 205.759 116.524 204.544 116.093C203.299 115.662 202.206 115.076 201.264 114.335C199.26 112.756 198.268 110.819 198.268 108.54C198.268 106.261 199.26 104.308 201.264 102.68C203.259 101.077 205.678 100.271 208.513 100.271C211.236 100.271 213.625 101.053 215.68 102.615C217.725 104.202 218.757 106.082 218.757 108.247ZM215.477 107.401C215.093 106.082 214.263 104.976 212.967 104.08C211.641 103.218 210.153 102.778 208.513 102.778C205.941 102.778 203.937 103.706 202.479 105.545C202.044 106.131 201.73 106.75 201.548 107.401H215.477Z" fill="#545454"/>
<path d="M239.492 108.605C239.492 107.067 238.823 105.724 237.507 104.569C236.181 103.446 234.531 102.876 232.567 102.876C230.624 102.876 228.984 103.446 227.668 104.569C226.341 105.724 225.683 107.067 225.683 108.605C225.683 110.127 226.341 111.462 227.668 112.61C228.984 113.765 230.624 114.335 232.567 114.335C234.531 114.335 236.181 113.765 237.507 112.61C238.823 111.462 239.492 110.127 239.492 108.605ZM242.61 116.484H239.492V113.782C239.299 113.977 239.127 114.164 238.965 114.335C237.072 116.012 234.774 116.842 232.081 116.842C229.378 116.842 227.111 116.012 225.279 114.335C223.466 112.707 222.566 110.803 222.566 108.605C222.566 106.392 223.466 104.487 225.279 102.876C227.111 101.207 229.378 100.369 232.081 100.369C234.774 100.369 237.072 101.207 238.965 102.876C239.127 103.031 239.299 103.201 239.492 103.397V89.5938H242.61V116.484Z" fill="#545454"/>
<path d="M264.904 108.605C264.904 107.067 264.236 105.724 262.92 104.569C261.594 103.445 259.943 102.876 257.98 102.876C256.036 102.876 254.396 103.445 253.08 104.569C251.754 105.724 251.096 107.067 251.096 108.605C251.096 110.127 251.754 111.462 253.08 112.609C254.396 113.765 256.036 114.335 257.98 114.335C259.943 114.335 261.594 113.765 262.92 112.609C264.236 111.462 264.904 110.127 264.904 108.605ZM268.022 116.483H264.904V113.781C264.711 113.977 264.539 114.164 264.377 114.335C262.484 116.011 260.186 116.841 257.494 116.841C254.791 116.841 252.523 116.011 250.691 114.335C248.879 112.707 247.978 110.803 247.978 108.605C247.978 106.392 248.879 104.487 250.691 102.876C252.523 101.207 254.791 100.369 257.494 100.369C260.186 100.369 262.484 101.207 264.377 102.876C264.539 103.03 264.711 103.201 264.904 103.397V100.727H268.022V116.483Z" fill="#545454"/>
<path d="M280.476 112.251L275.455 121.529H273.592L276.184 112.251H280.476Z" fill="#545454"/>
<path d="M325.047 116.484L320.309 99.1321L311.239 117.916L302.087 99.1321L297.39 116.484H294.191L301.278 90.5052L311.239 111.373L321.16 90.5052L328.205 116.484H325.047Z" fill="#545454"/>
<path d="M348.05 108.54C348.05 106.961 347.342 105.602 345.945 104.471C344.538 103.348 342.867 102.778 340.924 102.778C338.95 102.778 337.259 103.348 335.862 104.471C334.485 105.602 333.797 106.961 333.797 108.54C333.797 110.087 334.485 111.421 335.862 112.544C337.259 113.676 338.95 114.237 340.924 114.237C342.867 114.237 344.538 113.676 345.945 112.544C347.342 111.421 348.05 110.087 348.05 108.54ZM351.168 108.54C351.168 110.819 350.166 112.756 348.172 114.335C346.117 115.946 343.697 116.744 340.924 116.744C338.109 116.744 335.7 115.946 333.675 114.335C331.671 112.756 330.679 110.819 330.679 108.54C330.679 106.261 331.671 104.308 333.675 102.68C335.67 101.077 338.089 100.271 340.924 100.271C343.728 100.271 346.147 101.077 348.172 102.68C350.166 104.308 351.168 106.261 351.168 108.54Z" fill="#545454"/>
<path d="M372.125 108.605C372.125 107.067 371.457 105.724 370.141 104.569C368.815 103.446 367.165 102.876 365.201 102.876C363.258 102.876 361.618 103.446 360.302 104.569C358.975 105.724 358.317 107.067 358.317 108.605C358.317 110.127 358.975 111.462 360.302 112.61C361.618 113.765 363.258 114.335 365.201 114.335C367.165 114.335 368.815 113.765 370.141 112.61C371.457 111.462 372.125 110.127 372.125 108.605ZM375.243 116.484H372.125V113.782C371.933 113.977 371.761 114.164 371.599 114.335C369.706 116.012 367.408 116.842 364.715 116.842C362.012 116.842 359.745 116.012 357.912 114.335C356.1 112.707 355.199 110.803 355.199 108.605C355.199 106.392 356.1 104.487 357.912 102.876C359.745 101.207 362.012 100.369 364.715 100.369C367.408 100.369 369.706 101.207 371.599 102.876C371.761 103.031 371.933 103.201 372.125 103.397V89.5938H375.243V116.484Z" fill="#545454"/>
<path d="M401.101 108.247V109.582H383.851C384.145 110.933 384.955 112.04 386.281 112.903C387.657 113.798 389.176 114.237 390.856 114.237C391.99 114.237 393.063 114.026 394.096 113.586C395.118 113.179 395.969 112.601 396.647 111.861H400.21C399.37 113.358 398.125 114.547 396.485 115.409C394.784 116.304 393.063 116.744 391.342 116.744C389.581 116.744 388.103 116.524 386.888 116.093C385.643 115.662 384.55 115.076 383.608 114.335C381.604 112.756 380.612 110.819 380.612 108.54C380.612 106.261 381.604 104.308 383.608 102.68C385.602 101.077 388.022 100.271 390.856 100.271C393.58 100.271 395.969 101.053 398.024 102.615C400.069 104.202 401.101 106.082 401.101 108.247ZM397.821 107.401C397.436 106.082 396.606 104.976 395.311 104.08C393.984 103.218 392.496 102.778 390.856 102.778C388.285 102.778 386.281 103.706 384.823 105.545C384.388 106.131 384.074 106.75 383.892 107.401H397.821Z" fill="#545454"/>
<path d="M416.288 103.983C415.579 103.462 414.81 103.202 413.98 103.202C413.17 103.202 412.492 103.381 411.955 103.722C411.327 104.113 410.831 104.569 410.457 105.09C409.728 106.131 409.364 107.303 409.364 108.606V116.484H406.246V100.727H409.364V103.983L409.485 103.332C410.507 101.378 412.127 100.402 414.344 100.402C415.012 100.402 415.66 100.516 416.288 100.727V103.983Z" fill="#545454"/>
<path d="M433.635 116.484V106.62C433.635 105.602 433.352 104.723 432.785 103.983C432.188 103.267 431.226 102.909 429.91 102.909C428.554 102.909 427.46 103.104 426.63 103.495C425.82 103.91 425.152 104.439 424.646 105.09C423.694 106.286 423.229 107.881 423.229 109.875V116.484H420.111V100.727H423.229V103.429C423.877 102.542 424.697 101.818 425.699 101.248C426.772 100.687 428.017 100.402 429.424 100.402C430.801 100.402 431.915 100.556 432.785 100.858C433.646 101.183 434.374 101.631 434.972 102.192C436.156 103.299 436.753 104.78 436.753 106.62V116.484H433.635Z" fill="#545454"/>
<path d="M478.894 118.469L468.973 97.244L459.012 118.469L451.925 92.1005H455.124L459.821 109.81L468.973 90.6681L478.043 109.81L482.781 92.1005H485.939L478.894 118.469Z" fill="#545454"/>
<path d="M508.902 108.247V109.582H491.652C491.946 110.933 492.756 112.04 494.082 112.903C495.459 113.798 496.977 114.237 498.658 114.237C499.791 114.237 500.864 114.026 501.897 113.586C502.919 113.179 503.77 112.601 504.448 111.861H508.011C507.171 113.358 505.926 114.547 504.286 115.409C502.585 116.304 500.864 116.744 499.144 116.744C497.382 116.744 495.904 116.524 494.689 116.093C493.444 115.662 492.351 115.076 491.409 114.335C489.405 112.756 488.413 110.819 488.413 108.54C488.413 106.261 489.405 104.308 491.409 102.68C493.404 101.077 495.823 100.271 498.658 100.271C501.381 100.271 503.77 101.053 505.825 102.615C507.87 104.202 508.902 106.082 508.902 108.247ZM505.622 107.401C505.238 106.082 504.408 104.976 503.112 104.08C501.786 103.218 500.298 102.778 498.658 102.778C496.086 102.778 494.082 103.706 492.624 105.545C492.189 106.131 491.875 106.75 491.693 107.401H505.622Z" fill="#545454"/>
<path d="M517.165 116.484H514.047V89.5938H517.165V116.484Z" fill="#545454"/>
<path d="M526.973 116.484H523.855V89.5938H526.973V116.484Z" fill="#545454"/>
<path d="M547.188 116.484V106.62C547.188 105.602 546.904 104.723 546.338 103.983C545.74 103.267 544.779 102.909 543.463 102.909C542.106 102.909 541.013 103.104 540.183 103.495C539.373 103.91 538.705 104.439 538.198 105.09C537.247 106.286 536.781 107.881 536.781 109.875V116.484H533.663V100.727H536.781V103.429C537.429 102.542 538.249 101.818 539.251 101.248C540.324 100.687 541.569 100.402 542.977 100.402C544.353 100.402 545.467 100.556 546.338 100.858C547.198 101.183 547.927 101.631 548.524 102.192C549.709 103.299 550.306 104.78 550.306 106.62V116.484H547.188Z" fill="#545454"/>
<path d="M575.509 108.247V109.582H558.259C558.553 110.933 559.362 112.04 560.689 112.903C562.065 113.798 563.584 114.237 565.264 114.237C566.398 114.237 567.471 114.026 568.504 113.586C569.526 113.179 570.377 112.601 571.055 111.861H574.618C573.778 113.358 572.533 114.547 570.893 115.409C569.192 116.304 567.471 116.744 565.75 116.744C563.989 116.744 562.511 116.524 561.296 116.093C560.051 115.662 558.958 115.076 558.016 114.335C556.012 112.756 555.02 110.819 555.02 108.54C555.02 106.261 556.012 104.308 558.016 102.68C560.01 101.077 562.43 100.271 565.264 100.271C567.987 100.271 570.377 101.053 572.432 102.615C574.476 104.202 575.509 106.082 575.509 108.247ZM572.229 107.401C571.844 106.082 571.014 104.976 569.719 104.08C568.392 103.218 566.904 102.778 565.264 102.778C562.693 102.778 560.689 103.706 559.231 105.545C558.796 106.131 558.482 106.75 558.3 107.401H572.229Z" fill="#545454"/>
<path d="M583.488 114.237C584.268 114.652 585.28 114.856 586.525 114.856C589.38 114.856 590.817 114.001 590.817 112.284C590.817 111.291 589.785 110.526 587.74 110.005C586.869 109.769 585.938 109.549 584.946 109.354C583.944 109.159 583.012 108.915 582.152 108.605C581.15 108.215 580.39 107.743 579.884 107.173C579.368 106.587 579.115 105.903 579.115 105.122C579.115 103.543 579.803 102.355 581.18 101.574C582.526 100.776 584.156 100.369 586.08 100.369C587.963 100.369 589.542 100.678 590.817 101.281C592.052 101.915 592.893 103.03 593.328 104.634H590.007C589.653 103.747 589.127 103.161 588.428 102.876C587.78 102.575 586.97 102.42 585.999 102.42C584.996 102.42 584.156 102.599 583.488 102.941C582.779 103.291 582.435 103.812 582.435 104.503C582.435 105.22 582.729 105.757 583.326 106.099C583.893 106.408 584.591 106.676 585.432 106.912C586.292 107.132 587.234 107.327 588.266 107.498C589.238 107.677 590.169 107.938 591.06 108.28C593.085 109.045 594.097 110.266 594.097 111.958C594.097 113.651 593.338 114.913 591.83 115.735C591.04 116.15 590.19 116.467 589.279 116.679C588.388 116.85 587.416 116.939 586.363 116.939C581.797 116.939 579.176 115.328 578.507 112.089H581.787C582.111 113.114 582.678 113.83 583.488 114.237Z" fill="#545454"/>
<path d="M601.41 114.237C602.19 114.652 603.202 114.856 604.447 114.856C607.302 114.856 608.74 114.001 608.74 112.284C608.74 111.291 607.707 110.526 605.662 110.005C604.792 109.769 603.86 109.549 602.868 109.354C601.866 109.159 600.935 108.915 600.074 108.605C599.072 108.215 598.313 107.743 597.807 107.173C597.29 106.587 597.037 105.903 597.037 105.122C597.037 103.543 597.726 102.355 599.102 101.574C600.449 100.776 602.079 100.369 604.002 100.369C605.885 100.369 607.464 100.678 608.74 101.281C609.975 101.915 610.815 103.03 611.25 104.634H607.93C607.575 103.747 607.049 103.161 606.351 102.876C605.703 102.575 604.893 102.42 603.921 102.42C602.919 102.42 602.079 102.599 601.41 102.941C600.702 103.291 600.358 103.812 600.358 104.503C600.358 105.22 600.651 105.757 601.248 106.099C601.815 106.408 602.514 106.676 603.354 106.912C604.215 107.132 605.156 107.327 606.189 107.498C607.16 107.677 608.092 107.938 608.983 108.28C611.007 109.045 612.02 110.266 612.02 111.958C612.02 113.651 611.26 114.913 609.752 115.735C608.962 116.15 608.112 116.467 607.201 116.679C606.31 116.85 605.338 116.939 604.285 116.939C599.72 116.939 597.098 115.328 596.43 112.089H599.71C600.034 113.114 600.601 113.83 601.41 114.237Z" fill="#545454"/>
<path d="M619.049 116.842C618.371 116.842 617.774 116.63 617.268 116.223C616.751 115.857 616.498 115.393 616.498 114.823C616.498 114.286 616.741 113.806 617.227 113.391C617.733 113 618.341 112.805 619.049 112.805C619.778 112.805 620.406 112.992 620.952 113.358C621.438 113.773 621.681 114.254 621.681 114.791C621.681 115.377 621.418 115.857 620.912 116.223C620.365 116.63 619.748 116.842 619.049 116.842Z" fill="#545454"/>
<path d="M163.268 138H474.254" stroke="#38611F" stroke-width="1.94366"/>
<path d="M21.3803 138L161.324 138" stroke="#FF914D" stroke-width="1.94366"/>
<path d="M478.141 138L618.084 138" stroke="#FF914D" stroke-width="1.94366"/>
</svg>
